<?xml version="1.0" encoding="UTF-8" standalone="no"?>
<!-- Created with Inkscape (http://www.inkscape.org/) -->

<svg
   width="633.57367mm"
   height="529.16669mm"
   viewBox="0 0 633.57367 529.16669"
   version="1.1"
   id="svg1"
   xmlns="http://www.w3.org/2000/svg"
   xmlns:svg="http://www.w3.org/2000/svg">
  <defs
     id="defs1" />
  <g
     id="layer1"
     transform="translate(189.31339,-323.25637)">
    <path
       id="path1"
       style="fill:#000000;fill-opacity:1;stroke:none;stroke-width:2.01613;stroke-linecap:round;stroke-linejoin:round"
       d="m -12.388322,323.25636 a 46.03383,46.03383 0 0 0 -46.033693,46.03369 46.03383,46.03383 0 0 0 46.033693,46.0337 46.03383,46.03383 0 0 0 46.033653,-46.0337 46.03383,46.03383 0 0 0 -46.033653,-46.03369 z m 279.723552,0 a 46.03383,46.03383 0 0 0 -46.03365,46.03369 46.03383,46.03383 0 0 0 46.03365,46.0337 46.03383,46.03383 0 0 0 46.0337,-46.0337 46.03383,46.03383 0 0 0 -46.0337,-46.03369 z m -456.64861,46.03369 V 473.13046 L 6.1130828,610.85646 -189.31338,748.58242 V 852.42287 L 79.424831,663.03088 v -0.50843 -103.33198 -0.50843 z m 316.78686,0 a 46.03383,46.03383 0 0 0 -46.03369,46.0337 46.03383,46.03383 0 0 0 46.03369,46.03369 46.03383,46.03383 0 0 0 46.03364,-46.03369 46.03383,46.03383 0 0 0 -46.03364,-46.0337 z m 316.78681,0 -268.36728,189.13151 -0.36883,0.25847 v 104.35302 l 0.36883,0.25847 268.36728,189.13151 V 747.55113 L 250.29661,610.85662 444.26029,474.16207 Z" />
  </g>
</svg>
